<?xml version="1.0" encoding="UTF-8" standalone="no"?>
<!-- Created with Inkscape (http://www.inkscape.org/) -->

<svg
   xmlns:dc="http://purl.org/dc/elements/1.1/"
   xmlns:cc="http://creativecommons.org/ns#"
   xmlns:rdf="http://www.w3.org/1999/02/22-rdf-syntax-ns#"
   xmlns:svg="http://www.w3.org/2000/svg"
   xmlns="http://www.w3.org/2000/svg"
   xmlns:sodipodi="http://sodipodi.sourceforge.net/DTD/sodipodi-0.dtd"
   xmlns:inkscape="http://www.inkscape.org/namespaces/inkscape"
   sodipodi:docname="Caldeira.svg"
   viewBox="0 0 800 450"
   height="450"
   width="800"
   id="svg1479"
   version="1.1"
   inkscape:version="0.92.4 (e05b578f1, 2019-02-26, custom)">
  <metadata
     id="metadata1485">
    <rdf:RDF>
      <cc:Work
         rdf:about="">
        <dc:format>image/svg+xml</dc:format>
        <dc:type
           rdf:resource="http://purl.org/dc/dcmitype/StillImage" />
      </cc:Work>
    </rdf:RDF>
  </metadata>
  <defs
     id="defs1483">
    <inkscape:perspective
       sodipodi:type="inkscape:persp3d"
       inkscape:vp_x="18.470149 : 172.10821 : 1"
       inkscape:vp_y="0 : 1000 : 0"
       inkscape:vp_z="800 : 225 : 1"
       inkscape:persp3d-origin="400 : 150 : 1"
       id="perspective5228" />
  </defs>
  <sodipodi:namedview
     pagecolor="#ffffff"
     bordercolor="#666666"
     borderopacity="1"
     objecttolerance="10"
     gridtolerance="10"
     guidetolerance="10"
     inkscape:pageopacity="0"
     inkscape:pageshadow="2"
     inkscape:window-width="1366"
     inkscape:window-height="705"
     id="namedview1481"
     showgrid="false"
     inkscape:zoom="0.84224274"
     inkscape:cx="402.64873"
     inkscape:cy="187.82001"
     inkscape:window-x="-8"
     inkscape:window-y="-8"
     inkscape:window-maximized="1"
     inkscape:current-layer="layer1" />
  <g
     inkscape:groupmode="layer"
     id="layer1"
     inkscape:label="Principal"
     style="display:inline;opacity:1">
    <ellipse
       style="fill:#808080;fill-opacity:1;stroke:#000000;stroke-width:2;stroke-miterlimit:4;stroke-dasharray:none;stroke-opacity:0"
       id="path5251"
       cx="100.32737"
       cy="235.69125"
       rx="77.768555"
       ry="52.835125" />
    <path
       sodipodi:type="spiral"
       style="fill:none;fill-rule:evenodd;stroke:#000000"
       id="path5253"
       sodipodi:cx="94.984497"
       sodipodi:cy="128.24002"
       sodipodi:expansion="1"
       sodipodi:revolution="3"
       sodipodi:radius="56.306358"
       sodipodi:argument="-18.019411"
       sodipodi:t0="0"
       d="m 94.984497,128.24002 c 1.904948,2.08354 -1.868734,3.59578 -3.462978,3.16615 -4.320301,-1.16426 -4.77152,-6.78501 -2.869318,-10.0921 3.402592,-5.91562 11.566009,-6.26095 16.721229,-2.57249 7.56549,5.41296 7.7979,16.41309 2.27566,23.35035 -7.36028,9.24627 -21.283801,9.35532 -29.979481,1.97883 -10.942626,-9.28255 -10.923351,-26.1658 -1.682001,-36.6086 11.192513,-12.647644 31.054172,-12.49755 43.237732,-1.38518 14.35791,13.09555 14.07561,35.94651 1.08834,49.86686 -14.99431,16.07159 -40.841501,15.65625 -56.495982,0.79151 C 46.030083,139.8451 46.579006,110.997 63.323015,93.610245 82.107264,74.104937 113.95959,74.787796 133.07725,93.412391 c 21.22423,20.676829 20.40718,55.535809 -0.099,76.383359" />
    <path
       style="fill:#00ff00;fill-opacity:1;stroke:#000000;stroke-width:2.37461233;stroke-miterlimit:4;stroke-dasharray:none;stroke-opacity:0"
       d="m 89.318636,287.29712 c -19.888159,-1.81766 -38.861683,-9.62656 -51.243998,-21.0904 -19.650722,-18.1931 -19.650722,-42.81422 0,-61.00732 12.558959,-11.62738 30.343699,-18.98373 50.947172,-21.07341 28.50677,-2.89126 57.97451,5.61411 74.09251,21.38558 21.28351,20.8259 18.44633,47.90166 -6.91587,65.99975 -17.2736,12.32619 -41.68618,18.08835 -66.879814,15.7858 z"
       id="path5255"
       inkscape:connector-curvature="0" />
  </g>
</svg>
